<svg xmlns="http://www.w3.org/2000/svg" fill="none" viewBox="0 0 24 24" id="Pause--Streamline-Rounded-Material" height="24" width="24">
  <desc>
    Pause Streamline Icon: https://streamlinehq.com
  </desc>
  <path fill="#000000" d="M14.625 19c-0.4125 0 -0.7656 -0.1469 -1.05925 -0.44075 -0.29385 -0.29365 -0.44075 -0.64675 -0.44075 -1.05925V6.5c0 -0.4125 0.1469 -0.76565 0.44075 -1.0595 0.29365 -0.29365 0.64675 -0.4405 1.05925 -0.4405H17.5c0.4125 0 0.76565 0.14685 1.0595 0.4405 0.29365 0.29385 0.4405 0.647 0.4405 1.0595v11c0 0.4125 -0.14685 0.7656 -0.4405 1.05925C18.26565 18.8531 17.9125 19 17.5 19h-2.875ZM6.5 19c-0.4125 0 -0.7656 -0.1469 -1.05925 -0.44075C5.1469 18.2656 5 17.9125 5 17.5V6.5c0 -0.4125 0.1469 -0.76565 0.44075 -1.0595C5.7344 5.14685 6.0875 5 6.5 5h2.875c0.4125 0 0.76565 0.14685 1.0595 0.4405 0.29365 0.29385 0.4405 0.647 0.4405 1.0595v11c0 0.4125 -0.14685 0.7656 -0.4405 1.05925 -0.29385 0.29385 -0.647 0.44075 -1.0595 0.44075H6.5Zm8.125 -1.5H17.5V6.5h-2.875v11ZM6.5 17.5h2.875V6.5H6.5v11Z" stroke-width="0.5"></path>
</svg>