<svg xmlns="http://www.w3.org/2000/svg" fill="none" viewBox="0 0 24 24" id="Play-Arrow--Streamline-Rounded-Material" height="24" width="24">
  <desc>
    Play Arrow Streamline Icon: https://streamlinehq.com
  </desc>
  <path fill="#000000" d="M8 17.55005v-11.25c0 -0.23335 0.0756 -0.41665 0.22675 -0.55 0.151 -0.13335 0.32725 -0.2 0.52875 -0.2 0.063 0 0.1289 0.00835 0.19775 0.025 0.06865 0.01665 0.13425 0.04165 0.19675 0.075l8.85 5.65c0.11665 0.08335 0.20415 0.175 0.2625 0.275 0.05835 0.1 0.0875 0.21665 0.0875 0.35 0 0.13335 -0.02915 0.25 -0.0875 0.35 -0.05835 0.1 -0.14585 0.19165 -0.2625 0.275l-8.85 5.65c-0.063 0.03335 -0.12925 0.05835 -0.19875 0.075 -0.06935 0.01665 -0.1355 0.025 -0.1985 0.025 -0.20185 0 -0.37775 -0.06665 -0.52775 -0.2 -0.15 -0.13335 -0.225 -0.31665 -0.225 -0.55Zm1.5 -1.35 6.725 -4.275 -6.725 -4.275v8.55Z" stroke-width="0.5"></path>
</svg>