<svg xmlns="http://www.w3.org/2000/svg" fill="none" viewBox="0 0 24 24" id="Sound-Detection-Loud-Sound--Streamline-Rounded-Material" height="24" width="24">
  <desc>
    Sound Detection Loud Sound Streamline Icon: https://streamlinehq.com
  </desc>
  <path fill="#000000" d="m12.0748 17.60005 -3.2 3.2c-0.28335 0.2833 -0.6375 0.425 -1.0625 0.425 -0.425 0 -0.77915 -0.1417 -1.0625 -0.425l-3.524995 -3.55c-0.283335 -0.28335 -0.425 -0.63335 -0.425 -1.05 0 -0.4167 0.141665 -0.7667 0.425 -1.05l3.174995 -3.2v-3.825c0 -0.33335 0.15415 -0.5625 0.4625 -0.6875s0.57915 -0.07085 0.8125 0.1625l8.75 8.725c0.23335 0.2333 0.28335 0.50415 0.15 0.8125 -0.13335 0.3083 -0.36665 0.4625 -0.7 0.4625h-3.8Zm1.95 -1.5 -6.125 -6.075v2.55l-3.624995 3.625 3.524995 3.525 3.625 -3.625h2.6Zm3.275 -9.425c-1.1 -1.1 -2.39585 -1.78335 -3.8875 -2.050015 -1.49165 -0.266665 -2.94585 -0.1 -4.3625 0.500015 -0.18335 0.0833 -0.375 0.0875 -0.575 0.0125 -0.2 -0.075 -0.33335 -0.20418 -0.4 -0.387515 -0.08335 -0.216665 -0.07915 -0.429165 0.0125 -0.6375 0.09165 -0.208335 0.24585 -0.354165 0.4625 -0.4375 1.66665 -0.7 3.39165 -0.883335 5.175 -0.55 1.78335 0.333335 3.33335 1.158335 4.65 2.475015 1.3 1.3 2.12085 2.8208 2.4625 4.5625 0.34165 1.74165 0.1875 3.4375 -0.4625 5.0875 -0.08335 0.2333 -0.23335 0.41665 -0.45 0.55 -0.21665 0.1333 -0.44165 0.1583 -0.675 0.075 -0.2 -0.0667 -0.32915 -0.2 -0.3875 -0.4 -0.05835 -0.2 -0.04585 -0.40835 0.0375 -0.625 0.58335 -1.4 0.73335 -2.8417 0.45 -4.325 -0.28335 -1.48335 -0.96665 -2.7667 -2.05 -3.85Zm-2.1 2.125c0.36665 0.36665 0.65835 0.7833 0.875 1.25 0.21665 0.46665 0.35 0.9583 0.4 1.475 0.01665 0.2 -0.05415 0.36665 -0.2125 0.5 -0.15835 0.1333 -0.3375 0.19165 -0.5375 0.175 -0.2 -0.0167 -0.375 -0.1 -0.525 -0.25 -0.15 -0.15 -0.24165 -0.325 -0.275 -0.525 -0.05 -0.28335 -0.1375 -0.55835 -0.2625 -0.825 -0.125 -0.2667 -0.29585 -0.50835 -0.5125 -0.725 -0.21665 -0.2167 -0.45415 -0.3917 -0.7125 -0.525 -0.25835 -0.13335 -0.52915 -0.225 -0.8125 -0.275 -0.21665 -0.03335 -0.39585 -0.12085 -0.5375 -0.2625 -0.14165 -0.1417 -0.2125 -0.32085 -0.2125 -0.5375 0 -0.2167 0.07085 -0.4042 0.2125 -0.5625 0.14165 -0.15835 0.32085 -0.22085 0.5375 -0.1875 0.48335 0.06665 0.94585 0.2083 1.3875 0.425 0.44165 0.21665 0.8375 0.5 1.1875 0.85Z" stroke-width="0.5"></path>
</svg>